<?xml version="1.0" standalone="no"?>
<!DOCTYPE svg PUBLIC "-//W3C//DTD SVG 20010904//EN"
 "http://www.w3.org/TR/2001/REC-SVG-20010904/DTD/svg10.dtd">
<svg version="1.0" xmlns="http://www.w3.org/2000/svg"
 width="2000.000000pt" height="2000.000000pt" viewBox="0 0 2000.000000 2000.000000"
 preserveAspectRatio="xMidYMid meet">

<g transform="translate(0.000000,2000.000000) scale(0.100000,-0.100000)"
fill="#000000" stroke="none">
<path d="M9888 18510 c-105 -12 -151 -26 -233 -68 -89 -47 -166 -124 -201
-202 -21 -45 -30 -56 -37 -45 -12 22 -62 45 -97 45 -33 0 -70 -15 -70 -29 0
-4 29 -31 65 -60 l65 -53 -36 -40 c-64 -71 -94 -169 -94 -308 0 -99 8 -141 41
-226 l20 -52 -25 -190 c-14 -105 -37 -250 -51 -323 -13 -73 -22 -135 -20 -137
2 -2 48 3 103 12 55 9 118 16 140 16 40 0 41 1 92 86 33 54 62 90 79 97 14 6
28 15 31 18 3 4 4 68 2 142 l-3 136 -29 -11 c-41 -14 -93 5 -148 55 -51 48
-80 100 -88 161 -9 59 10 108 56 150 48 43 93 53 146 31 68 -28 74 -39 74
-127 0 -78 0 -79 23 -73 39 12 67 35 73 60 6 26 2 80 -10 105 -5 12 15 19 111
36 186 33 308 91 418 199 73 71 103 129 118 230 l12 74 32 -20 c40 -26 86 -97
113 -177 22 -67 50 -231 50 -294 0 -21 4 -38 8 -38 17 0 72 67 94 115 31 69
30 201 -2 295 -67 198 -237 345 -456 394 -89 20 -266 27 -366 16z"/>
<path d="M10441 17869 c-12 -12 -19 -25 -14 -29 9 -10 109 -50 123 -50 20 0 9
52 -15 75 -30 31 -64 32 -94 4z"/>
<path d="M10436 17734 c-34 -33 -9 -94 38 -94 30 0 46 18 46 51 0 32 -23 59
-50 59 -10 0 -26 -7 -34 -16z"/>
<path d="M10036 17714 c-34 -33 -8 -104 37 -104 25 0 57 36 57 63 0 48 -61 74
-94 41z"/>
<path d="M16630 17390 c-18 -18 -21 -29 -16 -62 5 -33 21 -77 44 -120 2 -5
-19 -8 -46 -8 -132 0 -177 -135 -73 -221 l38 -32 -15 -41 c-20 -56 -27 -182
-13 -245 6 -29 22 -76 35 -104 20 -45 25 -73 30 -199 15 -402 113 -569 330
-568 34 0 78 4 98 9 29 7 38 5 42 -6 11 -29 6 -52 -15 -63 -36 -20 -101 -83
-126 -124 -31 -48 -63 -139 -63 -178 0 -16 -14 -56 -30 -89 -108 -213 -155
-496 -168 -1007 l-7 -277 -20 80 c-10 44 -20 82 -22 84 -1 2 -10 -2 -18 -9
-11 -9 -14 -22 -10 -44 7 -32 50 -216 111 -476 41 -176 77 -330 149 -645 30
-132 64 -276 74 -320 10 -44 18 -81 16 -83 -1 -2 -63 20 -137 48 -74 27 -138
50 -141 50 -4 0 -7 -272 -7 -605 l0 -606 -52 7 c-29 3 -70 10 -90 14 l-38 8 0
-137 0 -136 144 -204 144 -204 -15 -36 c-48 -115 -186 -255 -317 -322 l-83
-43 43 -53 c24 -30 44 -59 44 -64 0 -11 -146 -305 -191 -385 -12 -22 -20 -48
-16 -57 8 -22 131 -122 194 -158 29 -16 75 -38 103 -47 l52 -18 -41 -52 -42
-52 9 -388 c4 -213 12 -395 16 -404 6 -13 -9 -29 -71 -75 -94 -70 -261 -172
-360 -219 l-71 -35 5 -172 c4 -108 10 -175 17 -179 17 -12 212 -9 264 3 63 15
193 76 297 139 105 63 174 87 289 100 92 11 161 34 185 64 24 29 25 108 1 226
-16 82 -20 118 -12 134 6 11 22 275 37 586 14 311 35 716 46 900 10 184 19
394 19 465 0 118 110 1278 122 1290 6 6 214 -1643 238 -1885 23 -235 78 -898
120 -1445 31 -398 31 -400 56 -420 l25 -20 -26 -85 c-53 -169 -161 -346 -309
-510 -77 -86 -87 -105 -88 -176 -1 -69 11 -86 79 -117 81 -36 179 -51 288 -44
110 8 178 27 241 70 71 47 99 100 129 247 29 140 66 230 124 299 21 25 44 57
51 71 18 34 16 131 -4 208 l-17 63 24 29 c30 35 34 87 44 590 16 778 7 1307
-27 1510 -6 36 -19 300 -28 587 -10 287 -20 524 -23 527 -2 3 -40 -6 -84 -20
-43 -14 -131 -34 -194 -45 -126 -22 -401 -38 -401 -23 0 5 -7 92 -15 194 -75
932 -93 1417 -90 2425 l2 740 27 195 c36 257 71 462 97 569 12 47 22 93 24
101 1 8 10 32 19 52 10 23 16 64 16 108 0 54 4 73 18 85 70 58 91 84 108 138
14 47 23 59 43 63 135 32 231 210 173 324 -9 19 -31 44 -49 55 -21 13 -30 25
-27 35 23 62 44 175 44 234 0 83 -20 126 -69 147 -17 8 -31 17 -31 20 0 3 23
16 50 29 54 25 60 38 33 63 -26 22 -68 31 -101 19 -28 -9 -29 -8 -40 35 -15
54 -82 129 -150 166 -87 47 -150 58 -342 56 -195 -1 -215 2 -393 65 -165 59
-208 65 -237 36z m200 -524 c0 -2 -8 -10 -17 -17 -16 -13 -17 -12 -4 4 13 16
21 21 21 13z m357 -792 c7 -21 -47 -73 -83 -80 -42 -8 -48 -3 -40 31 12 46
111 86 123 49z m-63 -708 c24 -22 36 -42 36 -60 0 -40 -46 -81 -100 -90 -25
-4 -55 -13 -67 -21 -20 -13 -22 -12 -32 17 -19 55 -14 81 27 119 39 38 82 69
94 69 3 0 23 -15 42 -34z m-30 -209 l30 -13 2 -275 c1 -150 7 -370 14 -488 16
-266 10 -405 -23 -531 -54 -207 -123 -339 -164 -314 -43 26 -116 214 -154 397
-24 118 -22 211 11 439 30 203 135 703 165 786 6 16 81 15 119 -1z"/>
<path d="M2840 17374 c-64 -12 -156 -49 -208 -84 -95 -64 -153 -152 -192 -292
-19 -67 -46 -296 -36 -305 2 -3 19 17 37 44 139 205 312 345 476 388 79 21
232 19 301 -2 31 -10 73 -34 98 -56 24 -21 44 -35 44 -29 0 20 -42 128 -64
167 -33 55 -107 122 -164 148 -37 17 -69 22 -157 23 -60 1 -121 0 -135 -2z"/>
<path d="M10100 17354 c0 -5 18 -17 40 -26 22 -9 42 -22 44 -30 15 -49 15 -49
36 -38 11 6 24 19 30 29 9 17 3 22 -58 42 -37 12 -73 24 -79 27 -7 2 -13 0
-13 -4z"/>
<path d="M10435 17063 c-24 -13 -51 -15 -157 -10 -70 3 -128 2 -128 -2 0 -4
20 -12 44 -19 35 -9 53 -22 81 -59 34 -44 41 -49 98 -59 34 -6 75 -15 91 -19
l29 -8 -6 63 c-4 35 -7 78 -7 96 0 38 -3 40 -45 17z"/>
<path d="M2752 16938 c-17 -22 -19 -78 -2 -78 5 0 30 14 54 32 35 24 43 34 35
45 -14 17 -73 17 -87 1z"/>
<path d="M3218 16939 c-10 -5 -18 -14 -18 -18 0 -9 91 -71 103 -71 16 0 5 62
-13 80 -22 22 -46 25 -72 9z"/>
<path d="M3191 16756 c-20 -23 -9 -69 18 -83 31 -15 58 -2 67 33 12 47 -55 86
-85 50z"/>
<path d="M2801 16746 c-20 -24 -9 -69 19 -83 49 -24 92 37 54 78 -20 22 -57
25 -73 5z"/>
<path d="M3050 16592 c0 -73 3 -132 7 -132 4 0 37 10 74 22 l67 21 -46 71
c-26 39 -59 89 -74 110 l-28 39 0 -131z"/>
<path d="M2850 16381 c0 -72 91 -107 144 -54 15 14 23 30 19 33 -10 9 -133 50
-150 50 -8 0 -13 -12 -13 -29z"/>
<path d="M2498 16255 c17 -33 74 -81 127 -108 148 -76 255 -89 255 -32 0 2
-26 9 -57 15 -125 26 -261 81 -317 129 -18 15 -18 15 -8 -4z"/>
<path d="M12054 16213 c-9 -21 -16 -69 -17 -115 0 -43 -3 -78 -6 -78 -3 0 -26
14 -51 30 -25 16 -50 30 -57 30 -18 0 -36 -78 -29 -123 7 -44 30 -92 57 -122
18 -20 18 -22 -7 -84 -35 -87 -43 -199 -19 -286 9 -36 21 -65 26 -65 5 0 9 21
9 48 0 108 31 295 51 308 5 3 22 -4 37 -15 48 -33 126 -59 216 -71 101 -14
231 -3 419 36 66 13 123 24 127 24 4 0 3 -24 -1 -52 -11 -68 4 -182 34 -253
27 -64 80 -143 102 -152 10 -3 36 14 74 51 45 42 69 57 99 62 46 7 47 12 58
171 11 161 -21 250 -104 287 -34 16 -41 23 -46 58 -19 120 -127 213 -286 247
-38 9 -115 10 -255 6 -225 -8 -249 -3 -335 60 -61 45 -77 44 -96 -2z"/>
<path d="M7909 16086 c-44 -22 -35 -42 23 -54 29 -5 55 -8 57 -6 3 2 1 16 -5
31 -11 32 -43 45 -75 29z"/>
<path d="M7390 16070 c-24 -24 -27 -60 -5 -60 22 0 95 38 95 50 0 12 -33 30
-54 30 -9 0 -25 -9 -36 -20z"/>
<path d="M7148 16006 c-31 -25 -75 -69 -97 -98 l-41 -53 23 -15 c22 -15 30
-24 81 -85 23 -27 26 -29 41 -14 9 8 21 45 27 81 l11 66 44 13 c54 15 58 10
68 -67 15 -125 118 -182 257 -144 42 12 102 75 113 118 10 41 33 72 55 72 21
0 40 -27 40 -57 0 -30 72 -121 104 -133 41 -14 111 -13 150 4 44 18 73 58 91
125 9 31 24 73 36 94 31 58 17 73 -75 80 -93 7 -197 -6 -265 -33 -66 -26 -89
-25 -184 5 -65 21 -97 25 -201 25 -86 0 -136 -5 -170 -16 -26 -9 -50 -13 -54
-10 -3 4 -1 24 5 46 5 22 7 40 4 40 -3 0 -31 -20 -63 -44z m445 -74 c44 -20
47 -23 47 -59 0 -21 -10 -59 -22 -83 -30 -58 -91 -86 -163 -75 -66 9 -99 44
-115 121 -14 68 -2 103 40 116 45 13 162 2 213 -20z m477 15 c32 -16 36 -51
16 -121 -28 -94 -107 -135 -194 -101 -51 21 -72 52 -79 118 -6 60 6 77 73 101
49 18 151 20 184 3z"/>
<path d="M7462 15898 c-7 -7 -12 -24 -12 -38 0 -34 17 -50 52 -50 27 0 48 23
48 54 0 37 -61 61 -88 34z"/>
<path d="M7871 15896 c-16 -19 -10 -66 10 -79 26 -16 68 0 75 30 4 14 2 33 -3
42 -13 21 -66 26 -82 7z"/>
<path d="M10739 15951 c-78 -25 -113 -48 -140 -92 -20 -32 -35 -42 -87 -60
-58 -19 -92 -47 -92 -76 0 -9 7 -10 26 -3 34 13 34 13 34 -15 0 -22 3 -24 19
-15 24 12 61 13 61 1 0 -4 -26 -20 -58 -34 -64 -29 -86 -49 -95 -86 -5 -22 -4
-23 31 -17 45 9 49 10 87 25 17 7 80 30 141 51 61 22 142 51 179 65 38 14 75
23 83 20 7 -2 10 0 7 5 -3 6 3 10 14 10 17 0 27 11 19 23 -1 1 4 12 10 24 10
19 9 23 -11 29 -25 9 -22 9 -62 0 -29 -7 -29 -7 -10 14 10 11 25 18 32 15 8
-2 11 0 8 5 -3 6 -2 10 4 10 6 0 17 13 25 29 9 16 24 31 36 34 12 3 20 13 20
26 0 25 -36 28 -90 10 -28 -10 -34 -9 -42 5 -12 21 -76 20 -149 -3z"/>
<path d="M9810 15698 c0 -47 -27 -221 -46 -300 -17 -70 -58 -139 -94 -158 -17
-9 -26 -4 -64 30 -36 34 -50 56 -70 118 -24 72 -56 200 -70 285 -5 24 -12 37
-22 37 -18 0 -18 -2 26 -185 40 -170 64 -229 113 -275 40 -39 40 -40 21 -55
-23 -17 -31 -18 -39 -5 -3 6 -19 10 -35 10 -40 0 -58 -32 -35 -66 18 -29 49
-31 67 -5 7 10 32 28 54 39 40 21 43 21 85 4 24 -9 52 -25 61 -34 21 -21 29
-22 52 -5 27 20 18 71 -13 75 -13 2 -34 -2 -46 -8 -17 -9 -28 -9 -45 0 l-22
12 35 36 c20 21 43 57 52 81 18 53 51 227 60 329 7 63 6 72 -9 72 -11 0 -16
-9 -16 -32z"/>
<path d="M10985 15659 c-161 -64 -731 -279 -739 -279 -21 0 -51 -38 -52 -65 0
-16 -4 -76 -8 -133 l-8 -103 50 20 c55 22 72 15 72 -29 0 -43 -35 -83 -104
-122 l-31 -17 90 0 c50 0 119 3 155 7 100 11 148 1 183 -38 26 -29 29 -38 25
-84 -5 -64 -45 -151 -92 -204 -63 -69 -154 -99 -318 -104 -59 -2 -88 -7 -88
-14 0 -7 -7 -76 -15 -155 -22 -203 -27 -330 -15 -344 14 -17 -31 -24 -191 -32
l-127 -6 -6 -37 c-3 -20 -13 -113 -21 -206 -29 -317 -65 -699 -69 -734 -2 -19
-12 -125 -22 -234 l-18 -199 -146 6 c-145 6 -331 33 -425 61 -34 11 -51 12
-56 5 -3 -6 -7 -138 -8 -293 -2 -266 -3 -286 -27 -370 -84 -298 -94 -375 -119
-871 -10 -205 -25 -889 -25 -1170 l0 -280 60 -24 c33 -13 60 -26 60 -29 0 -2
-16 -83 -36 -180 -32 -158 -36 -187 -32 -296 4 -105 8 -131 34 -195 38 -95 79
-143 160 -182 76 -38 144 -43 188 -14 32 21 80 120 101 206 27 118 29 203 5
449 -16 166 -19 235 -11 238 40 13 49 38 80 227 17 105 58 348 90 540 244
1432 252 1482 301 1955 52 485 108 992 112 995 2 2 47 -290 100 -648 85 -566
96 -659 88 -707 -5 -30 -12 -143 -16 -250 -8 -245 -2 -317 111 -1370 14 -129
25 -238 25 -242 0 -3 29 -16 64 -28 76 -25 75 -23 76 -180 2 -206 13 -232 118
-288 53 -27 60 -29 92 -17 19 8 37 14 40 14 3 1 14 -24 25 -55 26 -78 79 -134
172 -182 142 -72 288 -108 407 -99 135 10 226 69 226 146 0 50 -14 67 -133
159 -189 146 -249 218 -337 407 l-48 104 -11 193 c-7 106 -13 216 -16 243 -2
28 -7 121 -11 207 -3 87 -8 172 -10 190 -1 18 -8 303 -13 633 -6 330 -13 643
-16 695 -6 110 -12 262 -20 475 -13 350 -56 1070 -74 1245 -5 47 -6 88 -3 92
4 3 90 38 192 76 l185 70 6 39 c4 21 14 124 23 228 9 105 19 202 22 218 l6 27
-50 -31 c-68 -42 -118 -39 -146 10 -26 45 -27 170 -2 256 15 51 28 70 89 131
40 38 90 84 111 101 l40 30 12 119 c17 160 17 191 -1 197 -8 4 -198 -64 -422
-150 -224 -86 -419 -156 -433 -156 -25 0 -140 68 -140 84 0 4 30 19 68 33 37
14 220 84 407 155 270 103 343 127 354 118 12 -10 12 -9 3 8 -6 11 -13 28 -16
38 -7 22 -38 21 -101 -4z"/>
<path d="M10132 15579 c-2 -21 -1 -39 2 -39 7 0 13 71 6 75 -3 2 -7 -14 -8
-36z"/>
<path d="M6770 15592 c-56 -28 -100 -109 -100 -188 0 -50 27 -127 60 -166 17
-20 55 -49 86 -64 48 -23 63 -26 124 -22 50 4 81 12 114 32 l46 27 0 133 0
134 -35 -11 c-63 -19 -175 35 -224 108 -27 40 -25 40 -71 17z"/>
<path d="M2300 15304 l0 -287 64 5 c94 8 257 90 239 122 -3 6 -3 8 2 4 16 -15
69 61 96 139 15 41 23 93 26 181 l6 122 -217 0 -216 0 0 -286z"/>
<path d="M12070 15568 c-13 -5 -28 -14 -32 -21 -10 -16 -10 -64 0 -71 8 -5
102 62 102 73 0 16 -45 28 -70 19z"/>
<path d="M12561 15544 c-11 -8 -21 -19 -21 -24 0 -8 90 -60 105 -60 8 0 6 53
-3 67 -15 24 -58 33 -81 17z"/>
<path d="M10122 15475 c0 -16 2 -22 5 -12 2 9 2 23 0 30 -3 6 -5 -1 -5 -18z"/>
<path d="M10112 15390 c0 -19 2 -27 5 -17 2 9 2 25 0 35 -3 9 -5 1 -5 -18z"/>
<path d="M12090 15380 c-28 -28 -26 -66 5 -86 23 -15 27 -15 50 0 33 21 34 68
3 90 -29 20 -34 20 -58 -4z"/>
<path d="M12495 15360 c-35 -38 6 -96 58 -82 28 7 43 46 29 77 -14 31 -61 34
-87 5z"/>
<path d="M12260 15290 c-30 -45 -65 -96 -77 -115 l-22 -33 61 -21 c34 -12 67
-21 74 -21 8 0 14 35 19 113 11 170 10 172 -55 77z"/>
<path d="M10102 15290 c0 -19 2 -27 5 -17 2 9 2 25 0 35 -3 9 -5 1 -5 -18z"/>
<path d="M10092 15205 c0 -16 2 -22 5 -12 2 9 2 23 0 30 -3 6 -5 -1 -5 -18z"/>
<path d="M10080 15120 c0 -22 3 -40 8 -40 4 0 6 18 4 40 -2 22 -6 40 -8 40 -2
0 -4 -18 -4 -40z"/>
<path d="M12930 14931 l0 -113 33 19 c21 12 43 40 65 83 l33 65 -42 7 c-23 4
-53 17 -66 29 l-23 22 0 -112z"/>
<path d="M4622 15004 c-92 -24 -150 -62 -178 -116 -10 -19 -30 -32 -78 -48
-65 -21 -78 -30 -90 -64 -5 -16 -2 -18 28 -12 31 6 34 5 29 -14 -5 -18 -2 -19
41 -14 25 4 46 3 45 -2 0 -5 -31 -24 -68 -41 -62 -30 -91 -59 -91 -93 0 -19
41 -9 195 45 85 31 161 53 167 49 6 -4 9 -3 5 2 -3 5 44 26 104 48 85 29 109
42 109 56 0 10 3 26 7 36 6 15 1 17 -53 11 l-59 -6 35 30 c19 16 40 29 47 29
7 0 13 9 13 20 0 12 10 25 25 32 14 6 25 15 25 19 0 4 3 14 6 23 8 21 -28 21
-83 2 -36 -13 -40 -12 -51 5 -15 23 -54 24 -130 3z"/>
<path d="M12435 15002 c-22 -8 -55 -21 -74 -29 l-34 -13 23 -25 c33 -35 91
-35 119 1 20 25 29 85 14 83 -5 -1 -26 -8 -48 -17z"/>
<path d="M12831 14832 c-46 -47 -116 -77 -266 -115 l-125 -32 0 -32 0 -31 113
29 c126 33 229 78 258 111 21 25 62 98 57 103 -2 1 -18 -14 -37 -33z"/>
<path d="M2630 14718 c0 -37 -43 -301 -56 -348 -17 -58 -75 -140 -100 -140
-29 0 -84 52 -108 103 -24 52 -78 252 -91 339 -5 34 -11 45 -21 41 -18 -7 -12
-47 31 -218 43 -167 63 -213 115 -258 l42 -35 -28 -15 c-25 -13 -31 -13 -50 0
-47 30 -97 -34 -54 -69 28 -23 35 -23 59 1 10 10 36 28 59 41 39 22 41 22 83
6 23 -10 53 -26 66 -36 24 -19 51 -17 65 4 14 21 8 55 -11 66 -27 14 -37 13
-56 -6 -13 -14 -20 -14 -46 -4 l-30 13 36 37 c47 48 69 109 93 260 33 203 35
230 17 230 -8 0 -15 -6 -15 -12z"/>
<path d="M3955 14659 c-38 -160 -308 -1332 -312 -1354 -3 -21 0 -35 10 -44 14
-11 17 -7 23 26 4 21 9 42 12 48 3 5 7 18 8 30 2 19 95 426 154 670 16 66 54
232 85 369 51 223 55 250 42 264 -14 14 -16 13 -22 -9z"/>
<path d="M15604 14589 c-9 -16 5 -44 28 -54 14 -6 22 -17 20 -28 -2 -9 2 -17
8 -17 6 0 9 -4 6 -9 -3 -5 6 -12 22 -16 28 -7 72 -42 72 -58 0 -6 -5 -6 -12
-1 -7 5 -33 9 -57 9 -41 0 -44 -2 -45 -27 -1 -16 2 -28 6 -28 4 0 8 -6 8 -12
0 -8 73 -38 173 -72 94 -33 188 -66 207 -75 19 -8 38 -16 43 -17 4 -1 8 -2 10
-3 1 -2 11 -4 22 -6 11 -2 52 -17 91 -33 39 -17 76 -27 81 -23 12 8 26 44 14
36 -5 -3 -11 7 -13 22 -2 16 -7 28 -13 29 -18 1 -154 69 -155 77 0 16 30 18
59 4 33 -16 55 -9 41 13 -20 31 -10 34 48 13 21 -8 13 32 -10 54 -13 11 -53
30 -89 42 -55 18 -68 27 -82 55 -8 19 -32 46 -51 61 -49 37 -161 75 -224 75
-46 0 -55 -3 -59 -20 -6 -23 -4 -23 -39 -10 -49 19 -104 28 -110 19z"/>
<path d="M10011 14474 c0 -11 3 -14 6 -6 3 7 2 16 -1 19 -3 4 -6 -2 -5 -13z"/>
<path d="M10002 14390 c0 -19 2 -27 5 -17 2 9 2 25 0 35 -3 9 -5 1 -5 -18z"/>
<path d="M17548 14395 c-2 -3 1 -51 8 -107 26 -211 59 -317 112 -359 22 -17
24 -22 12 -29 -20 -13 -27 -12 -66 2 -26 9 -36 9 -48 -1 -23 -19 -20 -58 4
-71 22 -12 60 -5 60 10 0 5 19 18 43 28 41 19 43 19 82 -1 22 -11 48 -28 58
-38 10 -11 24 -19 32 -19 17 0 45 27 45 45 0 16 -27 45 -41 45 -6 0 -20 -5
-31 -11 -15 -8 -27 -8 -45 0 l-25 12 45 42 c48 46 78 118 116 287 31 142 34
160 18 160 -9 0 -20 -33 -35 -107 -35 -176 -69 -270 -115 -315 -22 -21 -45
-38 -52 -38 -7 0 -30 19 -52 43 -33 36 -43 57 -56 118 -19 86 -33 171 -42 252
-6 52 -13 66 -27 52z"/>
<path d="M7356 14373 c-13 -32 -20 -213 -9 -213 6 0 13 -29 15 -65 2 -35 7
-68 11 -72 15 -14 27 22 27 80 0 46 3 57 16 57 15 0 16 10 10 78 -10 109 -23
152 -45 152 -11 0 -22 -8 -25 -17z"/>
<path d="M9992 14285 c0 -16 2 -22 5 -12 2 9 2 23 0 30 -3 6 -5 -1 -5 -18z"/>
<path d="M8543 14187 c-88 -32 -113 -45 -113 -59 0 -10 -11 -24 -25 -30 -14
-6 -28 -22 -31 -34 -3 -13 -14 -26 -24 -29 -22 -7 -70 -51 -70 -64 0 -7 8 -7
26 -1 14 6 37 10 50 10 22 0 25 -4 22 -32 l-3 -31 -275 -99 c-151 -54 -276
-98 -278 -98 -1 0 0 12 4 28 8 34 44 66 101 87 24 9 43 23 43 31 0 16 -28 18
-65 4 -26 -10 -27 -9 -21 16 7 28 2 29 -48 8 -16 -6 -18 -4 -14 14 4 12 3 22
-2 22 -4 0 -77 -24 -161 -54 l-154 -54 -27 -243 c-14 -134 -29 -268 -32 -298
l-6 -53 57 7 c32 4 81 16 108 26 67 26 83 24 91 -7 13 -51 -17 -91 -112 -151
-16 -10 -9 -12 45 -12 36 -1 104 4 152 10 112 15 171 6 212 -30 27 -25 31 -35
30 -77 -2 -98 -71 -225 -148 -270 -80 -46 -144 -58 -327 -59 l-168 0 -4 -25
c-3 -14 -8 -54 -11 -90 -4 -36 -13 -121 -22 -189 -13 -109 -13 -125 0 -138 13
-13 60 2 408 131 217 81 412 155 434 166 22 10 97 39 168 65 70 26 127 50 127
54 0 3 9 67 20 141 11 74 31 212 45 305 13 94 34 233 45 310 125 835 125 837
81 834 -9 -1 -67 -20 -128 -42z"/>
<path d="M9982 14205 c0 -16 2 -22 5 -12 2 9 2 23 0 30 -3 6 -5 -1 -5 -18z"/>
<path d="M15346 14141 c-16 -17 -16 -30 -7 -133 6 -62 11 -144 11 -181 0 -147
46 -283 120 -357 39 -39 126 -90 154 -90 7 0 17 -11 20 -24 7 -30 28 -35 97
-26 115 16 236 107 269 202 26 76 26 169 -1 152 -5 -3 -6 1 -3 9 6 17 -17 37
-48 41 -13 1 -29 5 -34 9 -6 3 -39 11 -75 16 -58 10 -155 39 -197 60 -9 5 -34
16 -56 25 -53 23 -106 65 -106 85 -1 18 -58 221 -59 208 -1 -5 -11 -1 -23 7
-29 21 -41 20 -62 -3z"/>
<path d="M4586 13957 c3 -10 9 -15 12 -12 3 3 0 11 -7 18 -10 9 -11 8 -5 -6z"/>
<path d="M4610 13944 c0 -9 79 -55 101 -60 74 -15 121 -17 130 -3 16 26 9 29
-58 29 -39 1 -91 8 -120 19 -29 10 -53 16 -53 15z"/>
<path d="M12680 13875 c-5 -13 -12 -48 -15 -77 -3 -29 -8 -70 -10 -90 -4 -28
-1 -38 8 -38 9 0 17 -23 23 -70 5 -39 14 -71 19 -71 23 0 45 259 29 340 -8 39
-40 43 -54 6z"/>
<path d="M3450 13559 c-166 -110 -431 -179 -686 -179 l-102 0 -6 -27 c-2 -16
-7 -64 -11 -108 -3 -44 -8 -100 -10 -125 -11 -123 -21 -299 -30 -525 -3 -77
-8 -174 -10 -215 -2 -41 -7 -122 -10 -180 -3 -58 -7 -139 -10 -180 -3 -41 -7
-120 -10 -175 -14 -236 -23 -346 -30 -353 -4 -4 -93 -7 -198 -6 -170 1 -206 4
-316 28 -69 15 -147 36 -173 46 l-48 18 -1 -256 c-1 -331 -2 -348 -37 -469
-29 -98 -58 -234 -81 -373 -6 -36 -15 -141 -21 -234 -13 -210 -40 -1236 -40
-1524 l0 -214 60 -26 c73 -32 72 -28 28 -220 -26 -116 -31 -157 -32 -272 0
-129 1 -138 32 -216 18 -44 48 -99 66 -120 78 -91 228 -136 293 -88 37 26 78
110 103 208 25 97 27 277 5 476 -21 197 -20 224 9 238 14 6 27 22 30 39 11 52
217 1265 286 1683 68 410 103 643 114 750 3 30 24 222 46 425 22 204 52 478
66 610 14 132 28 251 31 265 3 14 31 -142 64 -360 32 -212 77 -506 100 -655
40 -261 41 -273 29 -365 -15 -126 -21 -460 -9 -585 32 -347 124 -1224 134
-1282 3 -18 10 -33 16 -33 6 0 9 157 9 426 -1 235 1 427 2 428 2 1 15 10 30
19 15 9 35 17 44 17 9 0 72 -32 141 -72 116 -67 124 -73 119 -97 -47 -214 -93
-564 -103 -770 -5 -122 -4 -146 9 -155 12 -9 16 -51 22 -216 14 -445 63 -528
348 -592 78 -17 100 -19 134 -9 58 16 62 36 14 63 -34 20 -42 32 -60 88 -21
65 -50 211 -44 219 2 2 24 -15 48 -37 49 -45 82 -58 121 -48 40 10 39 30 -3
93 -21 32 -51 90 -66 128 -15 39 -45 93 -66 120 -47 61 -60 93 -60 148 0 30 5
45 18 54 14 8 22 33 31 90 23 146 122 638 147 733 14 52 46 155 70 229 25 73
44 134 42 135 -2 1 -48 12 -103 24 -65 14 -131 38 -190 67 -97 49 -235 155
-235 182 0 16 121 373 180 533 l32 85 -7 240 c-3 132 -8 265 -10 295 -2 30 -7
134 -10 230 -6 170 -40 824 -50 965 -25 346 -58 638 -98 882 l-22 131 -75 -49z"/>
<path d="M4406 13573 c-6 -14 -5 -15 5 -6 7 7 10 15 7 18 -3 3 -9 -2 -12 -12z"/>
<path d="M4890 13172 c-49 -4 -129 -31 -170 -57 -55 -34 -118 -109 -129 -153
-11 -40 -11 -40 -45 -30 -40 13 -91 -3 -106 -32 -8 -15 -1 -22 45 -46 l54 -29
-27 -14 c-67 -34 -84 -66 -83 -162 0 -57 20 -168 37 -213 4 -10 -5 -20 -25
-31 -17 -8 -40 -34 -52 -57 -53 -104 28 -278 143 -309 42 -12 46 -15 57 -59
17 -65 45 -108 86 -127 l35 -17 0 -164 0 -165 208 -206 c201 -200 326 -309
335 -294 18 29 29 147 24 251 -4 95 -10 131 -33 192 -21 58 -28 97 -31 173 -4
96 -4 99 16 92 11 -3 62 -7 113 -8 78 -1 101 2 140 22 82 39 124 104 163 254
28 107 45 231 45 333 0 57 6 84 29 135 60 134 57 303 -9 416 -18 31 -18 32 2
73 21 42 36 139 30 197 l-3 31 -57 -21 c-77 -29 -262 -28 -457 1 -138 21 -267
31 -335 24z"/>
<path d="M18363 12917 c3 -9 2 -17 -3 -17 -6 0 -10 -10 -10 -22 0 -13 -12 -48
-27 -78 -14 -30 -25 -59 -24 -63 1 -5 -3 -6 -8 -3 -12 8 -53 -49 -43 -59 4 -5
1 -5 -6 -1 -8 5 -27 -24 -62 -97 -27 -57 -65 -124 -85 -148 l-35 -44 21 -17
c42 -35 87 -21 157 46 l44 41 -4 -40 c-1 -22 -5 -42 -8 -45 -3 -3 -13 -30 -24
-60 -10 -30 -32 -84 -49 -120 -40 -86 -44 -166 -8 -204 32 -35 96 -46 184 -34
40 5 86 16 103 23 65 27 165 139 148 166 -4 7 -3 9 3 6 27 -17 120 283 157
503 9 52 17 129 18 170 l3 75 -135 -3 c-126 -3 -231 9 -294 34 -16 6 -18 4
-13 -9z"/>
<path d="M14496 12854 c-15 -14 -23 -74 -10 -74 11 0 94 61 94 69 0 24 -62 27
-84 5z"/>
<path d="M14950 12835 c-7 -9 -11 -17 -9 -19 4 -4 100 -46 104 -46 12 0 12 38
0 56 -18 28 -75 33 -95 9z"/>
<path d="M14517 12709 c-20 -28 -8 -61 27 -74 22 -7 30 -5 48 13 18 18 20 26
12 49 -13 38 -65 45 -87 12z"/>
<path d="M14924 12689 c-17 -19 -17 -23 -3 -47 18 -33 54 -40 80 -16 24 22 24
46 1 67 -25 23 -55 21 -78 -4z"/>
<path d="M7905 12280 c-10 -16 -91 -61 -166 -91 -73 -30 -258 -79 -296 -79
-13 0 -23 -1 -23 -3 0 -2 -14 -94 -30 -206 l-30 -202 50 -392 c28 -216 52
-405 55 -422 2 -16 12 -92 21 -168 10 -75 19 -136 20 -134 2 2 -8 243 -22 537
l-26 535 28 170 c15 94 30 179 34 189 4 13 24 24 61 33 90 22 195 80 265 145
66 62 93 98 75 98 -5 0 -13 -4 -16 -10z"/>
<path d="M14811 11774 c-37 -76 -69 -179 -77 -242 -7 -62 9 -140 29 -148 19
-7 152 41 223 81 75 42 196 136 241 188 36 41 78 110 88 147 7 24 7 24 -26 -6
-77 -72 -202 -105 -329 -86 -82 12 -117 36 -122 85 -3 29 -3 29 -27 -19z"/>
<path d="M11990 11691 c0 -5 19 -34 43 -63 53 -66 160 -124 259 -140 l67 -12
10 -60 c35 -195 35 -201 8 -756 -14 -294 -25 -535 -24 -537 2 -1 35 253 75
565 l73 567 -22 151 -22 152 -71 6 c-148 14 -265 52 -363 117 -18 11 -33 16
-33 10z"/>
<path d="M13647 10735 c-178 -301 -174 -345 49 -621 120 -148 404 -483 416
-490 17 -11 112 92 162 175 31 52 49 95 56 134 l9 57 -130 217 c-71 119 -129
219 -129 223 0 3 11 21 25 40 13 18 22 36 20 41 -3 4 -34 24 -69 43 -128 72
-274 194 -326 274 -15 22 -17 20 -83 -93z"/>
<path d="M15250 10701 c0 -49 20 -181 42 -275 16 -72 27 -96 56 -128 29 -32
33 -41 21 -49 -18 -11 -26 -11 -50 2 -41 21 -87 -23 -59 -56 15 -18 56 -20 66
-4 3 6 25 19 48 28 40 17 42 17 79 -2 20 -10 41 -26 45 -34 6 -9 20 -13 38
-11 25 2 29 7 29 32 0 37 -27 56 -55 39 -15 -10 -25 -10 -45 -1 l-25 11 39 34
c46 39 71 98 106 248 35 153 38 175 23 175 -9 0 -21 -37 -35 -109 -37 -176
-65 -250 -115 -294 l-42 -39 -42 44 c-47 50 -64 106 -84 278 -15 125 -19 140
-30 140 -6 0 -10 -13 -10 -29z"/>
<path d="M14384 10615 c-100 -60 -102 -206 -4 -272 46 -32 124 -32 171 0 37
24 79 97 79 137 0 49 -42 113 -90 138 -57 29 -105 28 -156 -3z"/>
<path d="M6467 10572 c-40 -67 -153 -163 -292 -247 -44 -27 -82 -50 -83 -51
-2 -1 8 -19 22 -40 14 -20 24 -40 22 -43 -2 -3 -60 -102 -130 -218 -70 -117
-129 -222 -131 -234 -2 -12 -9 -27 -15 -34 -12 -14 -4 -420 9 -513 l6 -43 104
130 c58 72 109 131 115 132 6 0 47 43 91 96 44 52 96 112 115 132 42 43 240
284 298 361 85 115 102 196 63 301 -21 56 -99 191 -150 261 l-27 37 -17 -27z"/>
<path d="M4755 10328 c-28 -228 -48 -301 -95 -351 l-38 -42 -45 45 c-50 50
-70 103 -109 288 -20 96 -38 132 -38 77 0 -35 36 -187 66 -277 19 -57 34 -85
60 -107 40 -35 40 -37 14 -51 -14 -8 -25 -7 -40 2 -37 23 -78 -24 -50 -57 17
-20 46 -19 62 3 7 9 29 24 49 34 34 15 38 15 75 -3 21 -10 47 -24 57 -31 23
-17 52 1 52 32 0 33 -27 47 -58 31 -14 -7 -34 -10 -46 -6 -21 6 -20 8 13 46
38 45 58 106 81 249 17 108 19 170 6 170 -5 0 -12 -24 -16 -52z"/>
<path d="M5542 10320 c-62 -15 -112 -80 -112 -147 0 -88 66 -153 154 -153 69
0 118 33 141 95 31 80 6 149 -71 192 -41 24 -58 26 -112 13z"/>
<path d="M4500 8396 l0 -364 33 -21 c30 -19 33 -19 45 -4 6 9 12 39 12 66 0
34 4 48 13 45 19 -6 47 -69 47 -105 0 -24 7 -37 25 -49 16 -11 25 -26 25 -43
0 -32 37 -61 51 -39 5 7 9 27 9 43 1 66 12 105 31 105 39 0 54 55 54 195 0
116 -2 134 -23 173 -13 24 -29 45 -37 49 -11 4 -15 23 -15 77 0 86 -14 142
-40 156 -28 15 -30 13 -30 -30 0 -43 -2 -45 -31 -30 -14 8 -19 7 -19 -2 0 -32
-22 -88 -34 -88 -17 0 -26 22 -26 65 0 66 -20 133 -45 149 -14 9 -29 16 -35
16 -7 0 -10 -120 -10 -364z"/>
<path d="M7650 7746 c0 -59 39 -87 181 -130 96 -29 137 -53 259 -150 100 -81
176 -121 276 -146 163 -42 306 -35 421 19 71 34 89 54 98 106 l7 40 -24 -35
c-48 -70 -163 -110 -319 -110 -156 0 -286 50 -451 173 -112 83 -170 116 -288
162 -52 21 -110 48 -127 62 -25 18 -33 20 -33 9z"/>
<path d="M12172 7284 c-18 -12 -65 -35 -105 -49 -118 -44 -186 -81 -307 -170
-205 -150 -367 -198 -565 -165 -81 13 -178 62 -204 103 -23 36 -26 30 -11 -25
21 -74 163 -130 325 -130 184 1 314 49 475 177 121 96 158 118 250 145 116 35
167 64 175 100 4 17 5 33 3 34 -1 2 -18 -7 -36 -20z"/>
<path d="M6350 7080 c0 -34 23 -118 43 -156 35 -68 121 -121 229 -139 47 -9
137 17 165 47 30 32 61 105 68 158 3 32 3 38 -4 20 -52 -156 -154 -210 -296
-157 -87 32 -152 103 -187 202 -12 35 -17 42 -18 25z"/>
<path d="M13511 6684 c0 -11 3 -14 6 -6 3 7 2 16 -1 19 -3 4 -6 -2 -5 -13z"/>
<path d="M13496 6615 c-11 -46 -67 -134 -103 -161 -80 -61 -191 -82 -267 -50
-42 17 -84 72 -107 139 -25 71 -24 25 1 -54 32 -105 90 -149 194 -149 105 0
216 60 255 139 21 42 45 135 39 153 -3 7 -8 -1 -12 -17z"/>
<path d="M14780 4605 c-13 -14 -70 -43 -129 -66 -120 -46 -193 -87 -301 -170
-87 -67 -186 -118 -289 -149 -63 -19 -89 -22 -189 -18 -142 6 -214 30 -275 91
-40 40 -40 40 -33 11 13 -51 36 -75 101 -105 127 -57 273 -62 440 -14 112 33
148 52 242 128 124 101 182 135 273 163 91 28 154 57 166 75 7 11 24 79 20 79
-2 0 -13 -11 -26 -25z"/>
<path d="M7870 4225 l0 -285 679 0 679 0 6 103 c3 56 8 184 12 285 l6 182
-691 0 -691 0 0 -285z"/>
<path d="M10754 4328 c4 -101 9 -229 12 -285 l6 -103 679 0 679 0 0 285 0 285
-691 0 -691 0 6 -182z"/>
<path d="M5280 4257 c0 -61 46 -93 181 -128 98 -24 162 -58 279 -144 98 -73
158 -105 251 -133 74 -23 196 -42 265 -42 113 0 299 63 324 109 5 11 10 29 10
41 0 21 -2 20 -28 -7 -57 -62 -170 -95 -327 -96 -161 -1 -302 48 -470 162
-118 80 -212 129 -310 161 -85 28 -123 46 -152 73 -19 17 -23 18 -23 4z"/>
<path d="M16100 3949 c0 -29 -44 -117 -80 -161 -58 -70 -194 -115 -273 -89
-56 19 -87 49 -118 115 -32 67 -37 58 -13 -23 27 -93 101 -151 192 -151 16 0
59 9 94 20 87 27 150 82 177 154 21 56 38 156 27 156 -3 0 -6 -9 -6 -21z"/>
<path d="M15592 3900 c0 -14 2 -19 5 -12 2 6 2 18 0 25 -3 6 -5 1 -5 -13z"/>
<path d="M4046 3602 c12 -129 70 -210 178 -251 196 -73 333 -2 360 189 l7 45
-19 -52 c-42 -119 -116 -169 -233 -161 -99 8 -180 54 -236 136 -23 34 -46 81
-52 105 l-10 42 5 -53z"/>
</g>
</svg>
