<?xml version="1.0" standalone="no"?>
<!DOCTYPE svg PUBLIC "-//W3C//DTD SVG 20010904//EN"
 "http://www.w3.org/TR/2001/REC-SVG-20010904/DTD/svg10.dtd">
<svg version="1.0" xmlns="http://www.w3.org/2000/svg"
 width="3000.000000pt" height="2000.000000pt" viewBox="0 0 3000.000000 2000.000000"
 preserveAspectRatio="xMidYMid meet">

<g transform="translate(0.000000,2000.000000) scale(0.100000,-0.100000)"
fill="#000000" stroke="none">
<path d="M18765 18060 c-243 -52 -475 -251 -567 -486 -44 -115 -60 -205 -61
-344 0 -117 22 -286 42 -318 5 -8 101 -21 282 -37 438 -40 801 -74 841 -80
l37 -5 188 260 c103 143 190 260 193 260 3 0 61 -235 129 -523 68 -287 127
-530 130 -539 4 -11 41 71 100 223 l94 239 31 -5 c17 -3 141 -16 276 -31 135
-14 271 -29 302 -33 l57 -8 31 69 c77 173 113 380 92 540 -26 206 -111 371
-264 512 -80 75 -213 146 -306 165 -171 35 -358 -10 -532 -129 -53 -37 -184
-165 -247 -243 l-30 -38 -42 76 c-69 129 -111 186 -201 275 -142 140 -270 200
-440 206 -52 2 -113 -1 -135 -6z"/>
<path d="M19531 17000 c-96 -132 -177 -240 -179 -240 -12 0 -979 103 -1069
114 l-101 12 25 -71 c62 -175 195 -399 341 -577 206 -252 488 -456 793 -574
l85 -33 73 15 c372 77 916 416 1167 728 65 81 167 236 160 244 -2 2 -145 16
-318 32 -224 20 -315 25 -320 17 -3 -6 -50 -126 -104 -266 -53 -141 -100 -260
-104 -264 -5 -5 -13 13 -19 40 -10 47 -249 1041 -254 1055 -1 5 -80 -100 -176
-232z"/>
<path d="M23045 15520 c-77 -16 -154 -51 -307 -143 -230 -139 -243 -141 -573
-122 -162 9 -222 -2 -340 -60 -128 -63 -220 -156 -285 -290 -60 -123 -82 -263
-60 -375 8 -42 6 -47 -26 -83 -92 -101 -143 -213 -151 -334 -10 -146 17 -287
122 -618 57 -181 83 -304 125 -575 17 -113 33 -210 35 -217 3 -9 14 -9 42 -1
82 22 105 66 103 196 -1 54 -3 115 -4 137 -2 22 -7 104 -11 183 l-7 143 60 62
c89 93 139 177 180 302 26 79 23 309 -6 395 -12 36 -22 85 -22 109 0 60 32
124 74 146 30 16 40 17 88 7 67 -15 126 -55 247 -167 130 -119 172 -140 281
-140 80 1 92 4 195 49 204 90 231 98 320 94 100 -4 166 -33 337 -149 196 -132
302 -171 473 -172 55 -1 125 5 155 12 91 22 194 77 261 139 172 158 226 364
150 572 -16 47 -30 81 -31 76 0 -5 -13 9 -28 30 -39 54 -115 119 -168 145 -25
11 -99 32 -167 45 -67 14 -141 34 -164 45 -57 28 -118 98 -182 209 -29 50 -71
112 -93 138 -85 98 -223 179 -353 207 -75 16 -204 18 -270 5z"/>
<path d="M15845 15464 c-351 -54 -647 -199 -880 -429 -149 -147 -246 -303
-318 -511 -53 -154 -53 -148 -9 -163 143 -50 528 -219 519 -227 -7 -7 -304
111 -445 177 -58 27 -109 46 -114 41 -4 -4 -9 -29 -10 -55 l-3 -48 289 -114
c159 -63 291 -115 293 -115 2 0 3 41 3 90 0 532 247 921 624 986 187 33 310
-9 506 -172 63 -52 138 -109 165 -125 136 -79 289 -96 402 -45 116 53 193 163
193 277 0 70 24 60 135 -53 234 -239 369 -525 419 -881 4 -34 3 -38 -12 -31
-97 42 -263 55 -367 29 -201 -51 -372 -222 -417 -414 -10 -46 -14 -52 -32 -46
-12 3 -46 11 -77 18 l-56 11 -33 73 c-18 40 -36 73 -41 73 -12 0 -12 -6 11
-85 24 -83 23 -75 7 -75 -8 0 -36 -11 -62 -25 -27 -13 -49 -23 -50 -22 -1 1
-6 29 -13 62 -39 200 -211 378 -417 430 -283 72 -592 -98 -679 -375 -69 -219
-20 -427 138 -585 115 -114 242 -168 396 -169 100 0 171 15 260 57 91 42 215
167 259 260 35 74 61 177 61 248 0 46 0 47 51 68 28 12 57 21 66 19 10 -2 37
-65 78 -183 34 -99 97 -271 139 -383 76 -203 85 -235 66 -247 -6 -4 -57 -13
-113 -21 -138 -19 -158 -24 -151 -36 11 -18 257 -5 288 15 32 21 46 70 33 117
-15 55 -144 409 -213 584 -35 88 -61 162 -59 164 2 3 30 -2 62 -9 l58 -14 6
-95 c14 -194 100 -346 259 -453 170 -115 429 -122 595 -16 88 56 134 100 185
176 45 68 91 181 89 222 0 9 -8 -11 -18 -44 -10 -33 -30 -85 -46 -115 -31 -62
-152 -187 -205 -214 -223 -113 -436 -98 -627 45 -155 116 -236 352 -189 553
45 191 194 344 391 401 80 24 258 17 330 -12 l50 -21 9 -103 c10 -110 15 -106
31 24 l6 57 46 -32 c94 -67 175 -189 207 -308 8 -31 15 -44 15 -30 1 40 -43
153 -82 211 -37 56 -100 120 -152 156 l-29 21 -1 173 c-1 139 -5 192 -22 264
-43 181 -120 349 -241 520 -188 266 -503 434 -912 484 -121 16 -535 12 -645
-5z m246 -1407 c230 -79 380 -282 380 -517 0 -320 -277 -574 -597 -546 -246
20 -447 205 -491 451 -48 268 113 532 376 616 85 27 246 25 332 -4z"/>
<path d="M15867 13820 c-54 -14 -108 -44 -141 -78 -43 -46 -26 -53 59 -26 103
33 201 32 301 -1 85 -29 94 -30 94 -12 0 21 -61 74 -112 97 -54 24 -147 33
-201 20z"/>
<path d="M15919 13651 c-47 -15 -66 -30 -84 -67 -46 -97 54 -194 157 -151 46
19 71 57 71 106 0 50 -25 86 -74 105 -22 9 -40 16 -42 15 -1 0 -14 -4 -28 -8z"/>
<path d="M12012 15460 c-382 -54 -700 -321 -815 -685 -114 -362 -13 -756 260
-1015 344 -327 859 -368 1248 -99 80 55 227 203 259 260 24 42 12 31 -47 -47
-116 -153 -301 -279 -504 -341 -81 -25 -101 -27 -268 -27 -168 0 -186 2 -268
27 -368 114 -630 405 -697 777 -6 34 -11 110 -11 168 0 191 51 365 152 523
149 230 389 392 653 438 136 25 352 9 481 -34 197 -66 397 -219 507 -389 44
-69 57 -84 35 -41 -90 175 -319 365 -527 437 -132 46 -328 66 -458 48z"/>
<path d="M7960 15081 c-408 -90 -738 -421 -821 -824 -10 -49 -24 -97 -31 -107
-7 -10 -34 -47 -60 -82 -100 -136 -181 -324 -213 -489 -8 -46 -20 -171 -25
-278 -15 -290 -26 -337 -126 -553 -78 -169 -103 -253 -111 -379 -11 -174 17
-320 147 -775 103 -361 166 -520 270 -677 164 -248 382 -378 698 -415 l73 -8
-3 64 -3 65 -65 22 c-156 53 -270 126 -385 247 -217 226 -313 490 -342 948
-18 264 -4 1071 23 1375 22 243 108 500 230 685 102 155 253 284 383 328 l62
21 10 -27 c28 -81 79 -143 159 -197 77 -51 99 -61 297 -130 179 -62 270 -110
338 -179 84 -85 112 -165 116 -327 3 -123 17 -214 43 -273 l23 -51 -71 23
c-60 21 -86 24 -171 20 -83 -3 -107 -8 -145 -28 -30 -17 -45 -32 -45 -45 0
-23 45 -33 156 -34 37 -1 120 -10 185 -22 66 -11 133 -18 151 -15 22 3 36 0
45 -11 7 -9 67 -57 133 -107 155 -116 220 -183 259 -265 29 -62 31 -73 31
-176 0 -93 -6 -133 -39 -265 -21 -85 -41 -192 -44 -237 -17 -280 130 -554 369
-684 l80 -44 -5 -130 c-3 -71 -9 -194 -12 -272 -4 -79 -4 -143 0 -143 3 0 51
20 107 45 56 26 102 45 103 43 0 -2 11 -18 24 -35 l22 -33 -35 -70 c-38 -76
-85 -207 -85 -238 0 -15 73 -62 320 -206 312 -183 327 -191 637 -318 175 -71
381 -154 458 -185 177 -69 291 -129 398 -209 152 -114 305 -296 383 -456 l28
-57 37 57 c21 31 64 89 97 128 47 55 58 74 50 87 -17 32 -38 112 -64 247 -48
257 -80 344 -157 427 -78 85 -168 116 -407 138 -272 26 -339 52 -466 179 -54
54 -116 134 -189 244 -60 90 -128 186 -152 212 -51 57 -156 130 -228 158 -38
15 -49 25 -47 39 15 88 13 111 -8 161 -13 29 -36 63 -51 77 l-29 24 75 77 c42
42 87 96 101 119 35 61 78 182 142 405 54 191 55 198 56 325 0 153 -14 199
-100 333 -128 197 -136 243 -80 460 38 147 46 242 26 313 -18 64 -88 159 -215
290 -177 183 -178 184 -191 399 -10 165 -12 179 -39 229 -37 67 -90 122 -167
171 -69 45 -117 64 -318 127 -80 24 -181 63 -225 86 -86 45 -142 96 -348 319
-160 174 -318 270 -537 328 -121 32 -369 38 -490 11z"/>
<path d="M12020 14840 l0 -230 -230 0 -230 0 0 -130 0 -130 230 0 230 0 0
-230 0 -230 130 0 130 0 0 230 0 230 230 0 230 0 0 130 0 130 -230 0 -230 0 0
230 0 230 -130 0 -130 0 0 -230z"/>
<path d="M15883 14289 c-117 -20 -244 -90 -251 -137 -5 -34 20 -37 142 -18 61
10 176 22 255 27 165 10 181 13 181 40 0 56 -200 111 -327 88z"/>
<path d="M17089 14286 c-89 -32 -146 -93 -108 -117 12 -8 143 -13 357 -14 61
0 67 2 70 21 4 30 -69 91 -132 109 -60 18 -138 19 -187 1z"/>
<path d="M14564 13928 c9 -151 33 -374 51 -478 8 -47 19 -150 24 -230 16 -232
41 -295 117 -292 84 3 195 86 244 182 91 178 203 586 185 670 -4 20 -16 32
-48 44 -127 52 -560 216 -569 216 -8 0 -9 -34 -4 -112z"/>
<path d="M12990 13980 c-6 -11 -8 -20 -6 -20 3 0 10 9 16 20 6 11 8 20 6 20
-3 0 -10 -9 -16 -20z"/>
<path d="M22534 13890 c-101 -15 -224 -88 -224 -132 0 -23 10 -23 162 1 68 11
170 22 228 25 114 5 140 11 140 32 0 49 -182 94 -306 74z"/>
<path d="M17085 13822 c-78 -27 -152 -89 -131 -110 4 -3 39 5 79 18 101 34
216 33 312 -3 89 -34 103 -22 44 37 -72 72 -195 96 -304 58z"/>
<path d="M23610 13815 c-52 -16 -106 -66 -97 -89 5 -13 25 -16 110 -16 57 0
145 -3 195 -6 91 -7 92 -7 92 15 0 33 -54 78 -113 96 -62 18 -127 18 -187 0z"/>
<path d="M17153 13649 c-81 -23 -112 -132 -54 -189 16 -16 40 -32 55 -36 70
-17 144 32 152 102 10 84 -68 147 -153 123z"/>
<path d="M17931 13584 c0 -11 3 -14 6 -6 3 7 2 16 -1 19 -3 4 -6 -2 -5 -13z"/>
<path d="M17932 13490 c0 -14 2 -19 5 -12 2 6 2 18 0 25 -3 6 -5 1 -5 -13z"/>
<path d="M23660 13477 c-77 -22 -157 -83 -136 -104 2 -3 35 5 73 18 88 31 193
31 277 0 33 -11 63 -21 68 -21 16 0 8 27 -15 48 -58 55 -184 82 -267 59z"/>
<path d="M22527 13460 c-71 -18 -147 -68 -147 -97 0 -16 -4 -17 66 8 99 34
175 35 272 4 46 -14 86 -24 89 -21 13 13 -30 56 -79 80 -60 29 -144 40 -201
26z"/>
<path d="M23175 13435 c15 -66 129 -394 214 -618 50 -130 91 -243 91 -251 0
-25 -25 -35 -130 -50 -57 -9 -108 -16 -114 -17 -6 0 -2 -4 9 -9 11 -4 65 -6
120 -3 120 6 148 20 153 77 4 45 -5 74 -125 390 -130 341 -242 590 -218 481z"/>
<path d="M23664 13336 c-43 -43 -46 -90 -8 -135 32 -38 80 -49 126 -27 43 20
59 48 60 99 0 34 -5 46 -31 69 -46 42 -102 39 -147 -6z"/>
<path d="M22553 13325 c-40 -17 -65 -54 -66 -101 -1 -29 5 -42 31 -65 71 -63
181 -18 182 73 0 73 -78 122 -147 93z"/>
<path d="M7272 13283 c-49 -17 -104 -68 -100 -92 3 -14 24 -16 188 -12 218 4
235 10 178 64 -60 56 -172 73 -266 40z"/>
<path d="M14381 13275 c-63 -54 -89 -199 -55 -302 31 -94 101 -163 164 -163
26 0 80 27 80 41 0 6 -6 6 -19 -1 -32 -17 -86 -12 -115 11 -47 37 -79 114 -84
205 -4 72 -1 89 20 136 19 41 33 58 58 68 31 13 34 12 56 -14 21 -23 24 -24
24 -8 0 52 -79 69 -129 27z"/>
<path d="M7233 12944 c-44 -16 -103 -64 -103 -83 0 -15 12 -14 83 10 81 28
176 28 263 -1 36 -12 68 -19 72 -16 11 12 -14 40 -62 70 -41 25 -59 30 -129
33 -56 2 -95 -2 -124 -13z"/>
<path d="M8390 12931 c-69 -21 -130 -64 -130 -91 0 -16 6 -16 75 6 94 30 175
31 256 3 87 -29 103 -22 56 24 -58 56 -176 82 -257 58z"/>
<path d="M7827 12803 c-120 -276 -277 -693 -277 -737 0 -43 24 -74 63 -81 54
-9 217 -12 222 -5 3 5 -34 13 -83 20 -120 17 -144 23 -155 42 -8 11 12 73 78
244 97 252 201 545 214 605 16 72 -6 40 -62 -88z"/>
<path d="M7277 12780 c-35 -28 -47 -67 -33 -109 41 -123 225 -81 201 46 -13
71 -111 108 -168 63z"/>
<path d="M8403 12780 c-43 -26 -54 -79 -27 -130 49 -90 194 -57 194 44 -1 88
-89 134 -167 86z"/>
<path d="M16236 12655 c-3 -9 -6 -40 -6 -68 0 -98 74 -208 171 -255 83 -40
186 -49 242 -20 28 14 13 24 -55 37 -165 32 -268 123 -312 275 -12 43 -30 56
-40 31z"/>
<path d="M22875 12400 c-4 -7 -7 -35 -6 -63 3 -139 130 -257 278 -259 96 -1
140 23 66 36 -159 28 -250 99 -298 231 -22 59 -30 71 -40 55z"/>
<path d="M8167 11893 c-2 -5 -12 -31 -21 -60 -34 -104 -141 -191 -268 -217
-32 -6 -59 -16 -59 -21 0 -19 81 -29 144 -17 148 28 238 144 229 295 -2 25
-16 36 -25 20z"/>
<path d="M15802 11480 c47 -82 150 -202 230 -265 192 -152 418 -225 694 -225
l124 0 0 28 c0 16 -3 63 -6 104 l-7 75 -111 6 c-268 16 -604 120 -852 266 -47
28 -88 51 -90 51 -3 0 6 -18 18 -40z"/>
<path d="M14639 10933 c-13 -16 -12 -17 4 -4 9 7 17 15 17 17 0 8 -8 3 -21
-13z"/>
<path d="M14700 10898 c0 -20 9 -241 20 -490 l21 -453 645 -1660 c356 -913
647 -1665 648 -1672 1 -7 5 -16 9 -19 4 -4 7 -68 7 -143 0 -79 4 -130 9 -121
5 8 59 218 120 467 l112 451 225 539 c124 296 248 580 275 631 112 211 257
428 437 652 59 73 111 138 116 145 6 8 -10 60 -44 146 -29 74 -53 140 -54 147
-1 9 79 41 236 95 130 45 238 86 239 90 2 11 -579 967 -644 1059 -45 64 -115
128 -141 128 -6 0 3 -8 19 -19 17 -10 51 -40 75 -67 59 -67 670 -1087 656
-1096 -6 -4 -114 -42 -241 -84 -126 -42 -231 -78 -233 -79 -1 -1 24 -70 56
-153 l59 -150 -60 -74 c-163 -198 -353 -473 -460 -663 -69 -123 -101 -195
-307 -698 -90 -218 -165 -396 -167 -393 -2 2 93 390 211 862 l214 859 56 670
c39 468 56 720 56 835 0 90 -4 160 -8 155 -5 -6 -14 -36 -21 -68 -36 -167
-140 -331 -274 -433 -183 -139 -427 -202 -737 -191 -213 7 -375 45 -535 125
-249 124 -456 357 -566 636 -27 67 -28 69 -29 34z"/>
<path d="M14253 10643 l-363 -276 0 -338 0 -339 186 0 c172 0 185 -1 180 -17
-20 -67 -136 -546 -135 -560 0 -10 105 -155 234 -323 l234 -305 1 -351 0 -351
-37 -7 c-21 -3 -54 -6 -73 -6 -85 -2 -176 -58 -232 -144 -21 -33 -38 -64 -38
-69 0 -6 18 17 39 50 45 70 103 114 181 137 107 32 182 12 273 -74 108 -101
150 -217 149 -415 -1 -132 -23 -240 -68 -332 -42 -88 -121 -142 -233 -163 -51
-9 -71 -8 -116 5 -98 28 -185 116 -225 227 -11 29 -19 43 -20 32 0 -39 69
-160 116 -204 78 -71 118 -84 254 -77 64 4 135 13 158 21 132 47 203 150 237
343 41 237 -5 450 -125 573 -54 56 -137 100 -187 100 l-33 0 0 298 c0 163 -3
314 -7 336 -4 26 -2 37 5 35 6 -2 131 -161 278 -354 548 -718 986 -1285 991
-1285 3 0 1 6 -4 13 -5 6 -140 185 -299 397 -160 212 -548 724 -863 1139
l-573 754 75 298 74 299 -186 2 -186 3 -3 322 -2 322 355 276 c304 236 368
288 353 285 -2 -1 -166 -125 -365 -277z m466 -2906 c61 -28 134 -105 170 -179
77 -157 78 -423 2 -600 -25 -58 -92 -133 -143 -159 -59 -30 -65 -22 -15 22 93
81 139 227 140 439 1 138 -14 213 -60 306 -32 66 -105 145 -162 173 -22 12
-41 23 -41 26 0 9 66 -8 109 -28z"/>
<path d="M8640 10485 c-437 -40 -812 -75 -833 -78 -49 -7 -105 -50 -124 -96
-12 -28 -14 -57 -9 -131 4 -52 10 -104 12 -116 4 -17 -20 -43 -130 -138 l-135
-118 -5 -52 c-23 -226 -156 -3735 -156 -4126 l0 -86 -179 -159 c-205 -184
-204 -167 -11 -179 l105 -7 30 30 c34 36 45 39 45 11 0 -11 3 -20 8 -20 146
-7 277 -22 311 -36 29 -11 112 -82 263 -224 l222 -208 205 -46 c113 -26 206
-48 208 -49 6 -7 139 -1043 134 -1049 -3 -4 -74 0 -157 8 l-151 14 -269 131
c-294 144 -895 436 -1179 574 -99 48 -407 200 -685 338 -278 137 -557 275
-620 305 l-115 55 -1320 18 c-1636 22 -1742 22 -1695 4 19 -7 114 -42 210 -78
96 -35 498 -184 893 -331 395 -146 721 -266 725 -266 4 0 38 43 76 95 80 109
119 135 205 135 47 0 57 -4 88 -35 34 -34 35 -38 31 -93 -3 -40 -16 -83 -41
-137 -21 -43 -34 -81 -30 -85 4 -4 23 -13 41 -20 l32 -13 101 107 c103 109
140 136 181 136 42 0 100 -21 124 -45 39 -39 31 -76 -37 -198 -33 -60 -59
-110 -57 -112 3 -4 291 -111 743 -277 l300 -111 598 -92 c328 -50 599 -94 601
-96 3 -2 -2 -236 -9 -519 -7 -283 -17 -640 -21 -793 l-6 -277 -82 -1 c-44 -1
-1258 -5 -2696 -8 -1438 -4 3343 -7 10625 -7 7282 1 12547 3 11700 6 l-1540 5
-6 560 c-3 308 -7 606 -8 662 l-1 102 -227 3 c-224 3 -229 3 -263 28 -54 38
-150 132 -166 162 -21 40 -18 84 6 101 20 14 20 15 3 22 -10 3 -101 38 -203
77 -122 46 -193 78 -207 94 -27 30 -31 89 -7 115 14 16 8 19 -94 53 -106 36
-136 55 -161 103 -19 38 -13 91 14 118 30 31 91 33 218 6 l88 -18 -7 31 c-29
131 27 166 233 147 l122 -12 168 120 c153 109 176 122 257 145 49 14 90 27 91
28 2 2 1 26 -2 55 l-5 52 -24 -29 c-31 -37 -119 -91 -265 -163 l-116 -57 -504
9 -504 10 -1175 -419 c-646 -231 -1263 -451 -1370 -490 -107 -40 -334 -118
-505 -175 l-310 -103 -8 -39 c-4 -21 -34 -306 -67 -633 -33 -327 -62 -610 -65
-627 l-6 -33 -5319 0 -5318 0 -6 38 c-3 20 -40 314 -81 652 -41 338 -82 667
-89 730 -8 63 -13 116 -11 118 2 2 192 -6 422 -17 825 -41 1440 -62 1703 -59
92 1 116 3 60 5 -590 15 -1202 42 -2060 88 -587 32 -751 42 -755 47 -5 5 -146
1130 -143 1134 2 1 458 71 1013 154 556 83 1091 163 1190 178 99 14 173 28
165 30 -12 2 -1115 -154 -1628 -231 -67 -10 -95 -11 -98 -3 -2 6 -26 400 -55
876 l-51 866 308 1599 c307 1590 309 1601 309 1730 0 142 -12 198 -67 313 -25
53 -29 72 -24 110 3 26 8 82 12 124 6 73 5 78 -19 102 -21 21 -35 26 -69 25
-24 -1 -401 -34 -838 -74z"/>
<path d="M23538 10485 c39 -43 72 -82 72 -86 0 -3 -32 -4 -71 -1 l-72 5 7
-119 c10 -197 29 -838 25 -856 -3 -14 -27 -6 -149 51 -80 38 -482 227 -895
420 -469 220 -758 361 -772 376 -28 31 -43 85 -43 153 0 45 -3 52 -20 52 -21
0 -27 15 -10 25 5 3 15 16 21 28 8 15 -2 9 -28 -16 -39 -37 -45 -39 -149 -53
-60 -8 -156 -23 -214 -35 -102 -21 -350 -85 -358 -94 -2 -2 98 -53 223 -114
125 -61 224 -115 221 -120 -4 -5 -111 44 -239 109 l-232 119 -130 -50 c-376
-143 -669 -326 -928 -579 -144 -139 -241 -254 -346 -409 l-70 -103 48 -62
c185 -235 326 -535 376 -796 16 -89 39 -366 76 -961 l23 -357 155 -41 c295
-78 561 -155 561 -162 0 -4 -24 -2 -52 5 -80 20 -620 156 -642 163 -18 5 -18
-1 -11 -133 4 -77 9 -141 10 -142 2 -2 151 -32 330 -67 180 -35 328 -65 329
-67 2 -1 -1 -46 -5 -98 -87 -989 -117 -1344 -113 -1349 2 -2 239 33 526 78
288 45 624 98 748 117 124 19 306 48 405 64 99 16 385 61 635 100 l455 72 195
83 c481 205 677 278 792 294 40 6 200 16 355 22 268 11 283 11 320 -7 30 -15
40 -27 48 -59 l10 -40 71 9 72 8 15 77 c82 398 99 477 105 483 7 6 634 118
664 118 9 0 18 -12 22 -31 6 -30 8 -31 42 -24 57 10 422 112 499 138 46 16 69
29 67 38 -3 14 -49 134 -665 1719 -178 459 -347 880 -375 935 -210 418 -553
728 -982 888 -203 75 -468 140 -709 172 l-125 16 -62 67 c-34 37 -77 76 -95
86 -27 16 -20 5 39 -59z m168 -342 c29 -220 60 -742 67 -1130 2 -123 1 -132
-16 -127 -67 21 -2387 1174 -2387 1186 0 21 -13 27 1195 -572 683 -339 1094
-541 1153 -566 l32 -14 -5 122 c-2 68 -7 220 -10 338 -6 254 -20 495 -40 713
-17 181 -17 172 -9 164 3 -3 12 -54 20 -114z m-2231 -2644 c109 -6 351 -10
568 -7 l377 4 0 -73 0 -73 -630 0 -630 0 0 86 0 87 63 -6 c34 -4 148 -12 252
-18z m-391 -464 c187 -49 300 -263 282 -536 -19 -299 -136 -453 -346 -453 -59
-1 -84 4 -118 22 -69 37 -119 89 -157 164 -46 93 -45 102 8 73 28 -15 67 -25
121 -29 92 -8 149 -29 176 -64 16 -20 20 -21 20 -7 0 27 -58 74 -101 81 l-38
6 43 42 c23 23 56 69 72 102 26 53 29 69 29 159 0 78 -4 108 -19 135 -21 40
-65 90 -79 90 -5 0 6 -17 25 -38 45 -49 62 -113 56 -205 -6 -86 -31 -148 -84
-207 -43 -47 -87 -70 -134 -70 -133 0 -241 236 -185 402 19 54 78 114 131 133
29 11 33 14 16 15 -13 0 -32 -5 -44 -11 -31 -17 -33 -4 -5 44 49 83 127 138
221 157 23 4 43 8 46 9 3 1 32 -6 64 -14z m144 -10 c67 -31 143 -109 177 -181
92 -193 65 -547 -51 -682 -36 -42 -98 -84 -144 -97 -19 -5 -16 0 17 24 112 85
173 282 160 516 -12 204 -93 354 -232 428 -30 16 -30 16 -5 17 14 0 49 -11 78
-25z m5087 -54 c-17 -15 -1012 -331 -1044 -331 -74 0 174 84 794 270 232 69
267 78 250 61z"/>
<path d="M21045 6877 c-29 -16 -58 -21 -108 -21 -71 0 -76 -8 -15 -24 30 -8
48 -7 90 9 29 10 61 28 72 39 25 25 13 24 -39 -3z"/>
<path d="M17354 10468 c10 -7 52 -39 92 -71 220 -175 320 -403 400 -917 23
-150 24 -152 18 -61 -11 192 -84 524 -144 657 -68 151 -213 316 -331 377 -30
15 -45 22 -35 15z"/>
<path d="M9891 10094 c0 -11 3 -14 6 -6 3 7 2 16 -1 19 -3 4 -6 -2 -5 -13z"/>
<path d="M9906 10040 c35 -236 45 -317 54 -478 14 -235 2 -529 -36 -857 -23
-202 -8 -179 -130 -201 -58 -10 -110 -21 -115 -25 -6 -3 -3 -20 6 -43 45 -107
59 -205 59 -401 0 -159 -4 -207 -22 -294 -66 -301 -199 -578 -479 -996 -62
-93 -102 -156 -88 -140 14 17 72 96 128 178 259 374 381 625 453 933 26 110
28 134 28 324 0 189 -2 212 -26 300 -14 52 -29 102 -32 110 -5 13 13 19 103
35 l110 19 6 35 c75 472 70 1177 -10 1481 -8 30 -12 39 -9 20z"/>
<path d="M7168 9683 c-174 -380 -278 -734 -278 -942 l0 -88 75 -59 c41 -32 71
-61 67 -65 -4 -3 -37 -19 -75 -34 -52 -22 -69 -34 -74 -53 -11 -44 5 -573 22
-717 33 -282 92 -547 170 -753 34 -93 126 -285 132 -278 2 1 -19 50 -46 107
-118 249 -194 551 -237 934 -19 180 -31 673 -16 701 6 11 46 34 91 53 45 18
81 36 81 40 -1 3 -39 35 -85 71 l-84 65 -1 84 c0 170 97 521 239 861 65 155
76 199 19 73z"/>
<path d="M17680 9294 c-184 -49 -327 -176 -432 -381 -52 -100 -114 -265 -269
-710 -111 -320 -291 -875 -353 -1088 -159 -547 -119 -840 139 -1015 28 -18 52
-36 55 -39 3 -3 21 -13 40 -22 19 -9 67 -42 105 -74 88 -72 133 -95 185 -95
49 0 84 17 124 59 24 25 30 42 34 88 3 49 0 64 -20 93 -13 19 -39 45 -58 58
-51 35 -126 27 -222 -25 -121 -65 -129 -66 -185 -31 -131 82 -220 209 -244
351 -23 141 8 374 87 642 114 388 495 1520 531 1578 4 7 8 19 10 27 4 27 63
163 95 220 180 320 491 428 763 265 126 -76 217 -198 250 -336 10 -43 15 -116
15 -219 l0 -155 -34 62 c-64 120 -160 210 -294 277 -177 89 -440 87 -624 -5
-69 -34 -173 -108 -164 -116 3 -3 20 7 37 21 52 44 183 105 272 126 241 58
486 -9 657 -180 53 -53 86 -97 114 -152 l39 -78 -7 -687 c-3 -379 -9 -764 -13
-857 -6 -166 -6 -168 14 -158 18 10 20 25 26 159 4 81 10 542 13 1023 6 790 5
882 -10 944 -47 199 -196 356 -403 425 -74 25 -191 27 -273 5z"/>
<path d="M11205 9266 c-199 -77 -373 -206 -495 -368 -80 -106 -117 -180 -146
-297 -24 -94 -50 -324 -42 -372 5 -28 11 13 27 178 25 250 102 413 280 592
112 111 244 197 411 267 72 30 43 30 -35 0z"/>
<path d="M12265 8901 c156 -16 300 -58 446 -131 298 -150 579 -444 644 -673
l15 -52 -5 44 c-15 114 -126 291 -276 436 -240 233 -527 370 -794 380 -102 3
-104 3 -30 -4z"/>
<path d="M11801 8644 c0 -11 3 -14 6 -6 3 7 2 16 -1 19 -3 4 -6 -2 -5 -13z"/>
<path d="M11791 8604 c0 -11 3 -14 6 -6 3 7 2 16 -1 19 -3 4 -6 -2 -5 -13z"/>
<path d="M11781 8564 c0 -11 3 -14 6 -6 3 7 2 16 -1 19 -3 4 -6 -2 -5 -13z"/>
<path d="M11772 8520 c0 -14 2 -19 5 -12 2 6 2 18 0 25 -3 6 -5 1 -5 -13z"/>
<path d="M11762 8470 c0 -14 2 -19 5 -12 2 6 2 18 0 25 -3 6 -5 1 -5 -13z"/>
<path d="M11741 8383 c-107 -525 -298 -1727 -336 -2106 -72 -728 -83 -1972
-20 -2266 42 -198 142 -372 268 -467 184 -138 694 -317 1237 -433 1058 -227
1904 -259 2919 -110 112 16 205 28 207 27 1 -2 7 -228 12 -503 l9 -500 1 506
2 506 113 22 c546 107 1046 274 1534 511 l222 108 223 -80 c257 -92 350 -115
503 -124 248 -15 496 56 684 196 37 27 76 59 86 72 12 13 4 9 -17 -9 -211
-180 -485 -264 -783 -241 -137 10 -210 31 -558 157 -1289 467 -2748 937 -4206
1357 -316 90 -578 163 -583 162 -6 -2 178 -59 409 -127 1204 -355 2204 -668
3103 -969 362 -122 1063 -368 1089 -382 16 -8 -9 -23 -194 -113 -342 -166
-725 -306 -1120 -407 -167 -43 -469 -110 -495 -110 -6 0 -10 9 -10 20 0 11 -4
20 -10 20 -5 0 -10 -11 -10 -25 0 -14 -2 -25 -5 -25 -3 0 -114 -16 -247 -35
-996 -142 -1823 -109 -2868 116 -442 94 -804 210 -1095 349 -95 46 -121 64
-191 134 -141 141 -211 319 -234 594 -34 411 -17 1376 35 1997 29 340 193
1419 311 2044 19 101 33 185 31 188 -2 2 -9 -23 -16 -54z"/>
<path d="M6451 8294 c0 -11 3 -14 6 -6 3 7 2 16 -1 19 -3 4 -6 -2 -5 -13z"/>
<path d="M6437 8243 c-4 -15 -18 -82 -32 -148 -190 -876 -191 -1821 -4 -2698
18 -81 34 -146 36 -143 2 2 -9 73 -26 157 -172 882 -171 1795 4 2677 20 96 34
177 31 179 -2 2 -6 -9 -9 -24z"/>
<path d="M14535 7592 c-16 -9 -64 -18 -105 -22 l-75 -5 52 -18 c66 -23 107
-69 129 -144 54 -185 -85 -416 -233 -388 -47 8 -116 73 -141 133 -82 190 -24
365 136 408 26 7 37 13 25 13 -41 2 -114 -30 -144 -62 -50 -52 -70 -109 -71
-190 0 -85 14 -143 50 -212 42 -78 100 -115 181 -115 87 0 149 -19 187 -56 36
-36 42 -35 20 4 -18 33 -66 62 -103 62 l-32 0 53 53 c72 71 99 142 99 257 1
101 -24 163 -82 210 l-36 30 29 0 c29 0 106 37 106 52 0 11 -10 9 -45 -10z"/>
<path d="M9745 7466 c-13 -13 -29 -43 -35 -66 -15 -57 -10 -857 6 -884 11 -19
13 -18 38 7 26 26 26 28 26 176 l0 149 173 -5 c94 -3 217 -2 272 3 91 8 76 9
-170 14 -216 4 -261 7 -225 15 l45 11 3 254 c3 271 0 310 -24 335 -24 23 -81
19 -109 -9z"/>
<path d="M13362 7330 c-67 -645 -145 -1618 -161 -1989 l-6 -154 -130 -2 c-141
-2 -204 -18 -311 -80 -76 -44 -203 -179 -246 -260 -47 -91 -59 -139 -15 -59
103 187 243 308 422 364 52 17 98 23 180 24 l110 2 13 174 c38 520 68 906 113
1455 27 336 48 619 47 630 -2 11 -9 -36 -16 -105z"/>
<path d="M10631 7154 c0 -11 3 -14 6 -6 3 7 2 16 -1 19 -3 4 -6 -2 -5 -13z"/>
<path d="M10646 7070 c18 -172 325 -1951 332 -1920 5 26 -318 1934 -333 1965
-3 6 -2 -15 1 -45z"/>
<path d="M18751 6670 c-110 -42 -326 -151 -434 -219 -77 -49 -150 -125 -210
-217 -44 -68 -111 -194 -103 -194 2 0 29 42 60 94 71 119 154 224 209 263 102
73 366 213 517 274 125 51 95 50 -39 -1z"/>
<path d="M19185 6529 c-116 -44 -290 -129 -375 -184 -83 -54 -265 -231 -293
-285 l-18 -35 33 40 c155 188 325 306 623 435 66 28 122 54 124 56 10 9 -18 1
-94 -27z"/>
<path d="M16030 6223 c-3 -182 -7 -333 -10 -335 -3 -2 -237 6 -520 18 -283 12
-538 23 -565 23 l-51 1 -12 -72 c-33 -201 -72 -472 -69 -482 2 -6 23 111 47
259 24 149 46 273 49 276 3 4 125 1 271 -7 297 -15 1857 -83 2600 -114 585
-23 647 -27 727 -45 178 -41 261 -128 341 -355 37 -106 79 -281 96 -403 8 -50
14 -76 15 -57 3 94 -61 379 -118 527 -64 164 -152 258 -275 293 -25 7 -44 16
-41 19 3 6 -717 45 -1050 57 -82 3 -416 16 -742 30 -325 13 -612 24 -637 24
l-46 0 -2 338 -3 337 -5 -332z"/>
<path d="M18598 5763 c18 -2 45 -2 60 0 15 2 0 4 -33 4 -33 0 -45 -2 -27 -4z"/>
<path d="M18700 5761 c8 -6 29 -11 47 -11 61 0 179 -31 253 -66 59 -28 92 -53
160 -122 93 -94 146 -182 186 -307 26 -79 33 -58 8 26 -66 223 -248 411 -451
463 -77 20 -225 32 -203 17z"/>
<path d="M12378 5551 c-41 -14 -83 -41 -98 -64 -10 -17 -7 -17 18 5 50 42 94
51 206 45 232 -13 492 -133 639 -297 26 -29 47 -48 47 -43 0 19 -123 144 -185
189 -84 59 -211 117 -315 144 -92 24 -267 35 -312 21z"/>
<path d="M6441 5224 c0 -11 3 -14 6 -6 3 7 2 16 -1 19 -3 4 -6 -2 -5 -13z"/>
<path d="M10982 5110 c0 -14 2 -19 5 -12 2 6 2 18 0 25 -3 6 -5 1 -5 -13z"/>
<path d="M11028 5073 c6 -2 18 -2 25 0 6 3 1 5 -13 5 -14 0 -19 -2 -12 -5z"/>
<path d="M10963 5063 c9 -2 23 -2 30 0 6 3 -1 5 -18 5 -16 0 -22 -2 -12 -5z"/>
<path d="M10893 5053 c9 -2 25 -2 35 0 9 3 1 5 -18 5 -19 0 -27 -2 -17 -5z"/>
<path d="M18953 4830 c0 -36 2 -50 4 -32 2 17 2 47 0 65 -2 17 -4 3 -4 -33z"/>
<path d="M6670 3133 c-74 -119 -176 -246 -297 -374 -75 -78 -102 -111 -73 -89
72 54 220 210 282 296 53 75 145 234 135 234 -3 0 -24 -30 -47 -67z"/>
</g>
</svg>
